P3
3 3
255
125
125
50
125
125
50
50
50
200
125
125
50
125
125
50
50
50
200
125
125
50
125
125
50
50
50
200
